#!OML:ASF C:\ViconDB\ViconDB\414\Spring2016\041811\Spring2016.ASF
:FULLY-SPECIFIED
:DEGREES
216
root 7.68619 18.4531 -25.8241 -175.092 -7.19388 176.066
lowerback 1.57452 -2.86743 -7.46883
upperback -1.95928 -4.03755 1.34686
thorax -2.30793 -1.87625 5.70838
lowerneck -12.7988 -4.43972 -15.6586
upperneck 25.1326 -5.227 15.5205
head 11.0578 -1.59304 7.91183
rclavicle -6.37478e-014 4.77083e-015
rhumerus -84.0559 -2.76791 -85.2335
rradius 93.634
rwrist 8.29063
rhand -32.3694 -11.0677
rfingers 7.12502
rthumb -5.60537 -40.9736
lclavicle -6.37478e-014 4.77083e-015
lhumerus -50.6322 -37.8645 105.705
lradius 110.227
lwrist -21.2256
lhand -39.1569 9.15343
lfingers 7.12502
lthumb -12.1549 38.7803
rfemur -39.2181 -14.8371 24.037
rtibia 34.1975
rfoot -160.932 3.57706
rtoes -7.32336
lfemur 16.0598 -7.83955 -23.5502
ltibia 28.334
lfoot 15.3781 6.11711
ltoes 1.40094
217
root 7.68119 18.4682 -26.3292 -175.484 -6.95306 176.131
lowerback 1.86434 -2.67413 -7.2633
upperback -1.93669 -3.79067 1.41898
thorax -2.49241 -1.7475 5.68116
lowerneck -12.7731 -4.62985 -15.817
upperneck 25.0027 -5.46518 15.4696
head 11.0554 -1.73171 7.87745
rclavicle 6.0033e-014 1.31198e-014
rhumerus -83.4667 -3.49261 -84.9091
rradius 94.2922
rwrist 7.51337
rhand -32.9837 -11.079
rfingers 7.12502
rthumb -6.19848 -40.9683
lclavicle 6.0033e-014 1.31198e-014
lhumerus -52.1702 -36.8869 105.772
lradius 108.244
lwrist -20.2758
lhand -38.0811 8.82596
lfingers 7.12502
lthumb -11.1174 38.5115
rfemur -38.6792 -15.2194 24.2595
rtibia 33.6396
rfoot -160.428 2.84623
rtoes -6.36825
lfemur 15.5471 -7.18651 -23.2321
ltibia 31.3192
lfoot 15.4322 6.25497
ltoes 1.96183
218
root 7.6774 18.4539 -26.8367 -175.85 -6.83427 175.58
lowerback 2.01229 -2.56641 -7.77583
upperback -1.76945 -3.66712 1.35783
thorax -2.395 -1.68395 5.90591
lowerneck -12.6633 -4.65372 -15.9957
upperneck 24.5919 -5.49973 15.5186
head 10.8933 -1.77971 7.89169
rclavicle 3.20665e-014 9.54166e-015
rhumerus -82.3329 -4.07078 -84.5393
rradius 94.6579
rwrist 8.01041
rhand -33.2536 -11.0831
rfingers 7.12502
rthumb -6.45907 -40.9646
lclavicle 3.20665e-014 9.54166e-015
lhumerus -53.3967 -35.3857 105.581
lradius 105.813
lwrist -20.4435
lhand -37.3208 9.01947
lfingers 7.12502
lthumb -10.3842 38.7431
rfemur -38.1646 -15.7096 23.8085
rtibia 33.9772
rfoot -160.655 1.86782
rtoes -7.08704
lfemur 14.5756 -6.61031 -23.5499
ltibia 35.1288
lfoot 14.8517 6.32562
ltoes 1.47775
219
root 7.67471 18.413 -27.3368 -176.245 -6.44063 175.623
lowerback 2.03408 -2.33824 -7.6422
upperback -1.52265 -3.34552 1.37176
thorax -2.20634 -1.53895 5.83151
lowerneck -12.6857 -4.73438 -15.9033
upperneck 24.2346 -5.61028 15.3205
head 10.7772 -1.86169 7.75137
rclavicle 1.62134e-014 9.54166e-015
rhumerus -80.8586 -4.64635 -84.6025
rradius 95.0038
rwrist 7.98007
rhand -33.7537 -11.252
rfingers 7.12502
rthumb -6.94186 -41.1182
lclavicle 1.62134e-014 9.54166e-015
lhumerus -54.4179 -33.7749 105.097
lradius 103.025
lwrist -20.4877
lhand -36.7903 9.16092
lfingers 7.12502
lthumb -9.87234 38.9095
rfemur -37.6579 -15.9581 24.0575
rtibia 34.9443
rfoot -160.82 1.00956
rtoes -7.93826
lfemur 13.1458 -5.73335 -23.1439
ltibia 39.5603
lfoot 14.1026 6.36305
ltoes 1.79001
220
root 7.6654 18.3564 -27.8272 -176.508 -5.69583 175.857
lowerback 1.99726 -1.96222 -7.23899
upperback -1.3367 -2.81756 1.41783
thorax -2.08915 -1.29008 5.63346
lowerneck -12.8776 -4.85273 -15.7384
upperneck 23.9765 -5.75665 15.0483
head 10.7342 -1.95584 7.57247
rclavicle 3.64024e-014 1.55052e-014
rhumerus -79.167 -5.14078 -84.6585
rradius 95.3558
rwrist 8.25576
rhand -34.0129 -11.6034
rfingers 7.12502
rthumb -7.19197 -41.4611
lclavicle 3.64024e-014 1.55052e-014
lhumerus -55.2548 -31.9604 104.547
lradius 99.9059
lwrist -20.592
lhand -35.8279 8.92297
lfingers 7.12502
lthumb -8.94375 38.7134
rfemur -37.1812 -15.6367 24.3704
rtibia 36.3403
rfoot -160.18 0.440143
rtoes -7.51074
lfemur 11.184 -4.47653 -22.482
ltibia 44.4115
lfoot 13.2093 6.09261
ltoes 2.20046
221
root 7.64179 18.2587 -28.3022 -176.876 -5.21636 175.476
lowerback 2.2798 -1.67227 -7.2612
upperback -1.12267 -2.44749 1.22882
thorax -2.08831 -1.111 5.44505
lowerneck -12.9891 -4.96076 -15.4602
upperneck 23.6844 -5.9027 14.6935
head 10.6548 -2.05069 7.33905
rclavicle 1.57288e-014 1.98785e-015
rhumerus -77.2494 -5.41104 -84.9559
rradius 95.5959
rwrist 8.44223
rhand -34.0874 -11.4393
rfingers 7.12502
rthumb -7.26397 -41.2946
lclavicle 1.57288e-014 1.98785e-015
lhumerus -56.1996 -30.4869 103.98
lradius 96.8346
lwrist -19.6703
lhand -35.4195 9.5775
lfingers 7.12502
lthumb -8.54965 39.3844
rfemur -36.3798 -16.1495 23.8947
rtibia 37.9205
rfoot -158.636 1.21519
rtoes -12.0715
lfemur 9.13604 -3.43895 -22.5644
ltibia 49.5055
lfoot 11.9195 5.80905
ltoes 2.16665
222
root 7.61859 18.1361 -28.7778 -177.565 -4.72369 175.867
lowerback 2.79349 -1.34897 -6.58733
upperback -0.851229 -2.01735 1.27964
thorax -2.1775 -0.90776 5.1157
lowerneck -12.9934 -3.60777 -15.6533
upperneck 22.9875 -6.48738 15.0065
head 10.442 -3.25353 7.21037
rclavicle -2.0773e-014 -2.38542e-015
rhumerus -75.2295 -5.51904 -85.2609
rradius 95.8469
rwrist 9.00902
rhand -34.0926 -11.8106
rfingers 7.12502
rthumb -7.26892 -41.6658
lclavicle -2.0773e-014 -2.38542e-015
lhumerus -57.0099 -28.9551 103.276
lradius 93.2858
lwrist -19.854
lhand -35.1569 10.5415
lfingers 7.12502
lthumb -8.29623 40.3586
rfemur -35.0368 -16.8708 23.924
rtibia 39.6205
rfoot -157.734 3.03269
rtoes -13.6783
lfemur 7.20417 -2.31886 -21.6493
ltibia 54.6373
lfoot 10.4022 5.05293
ltoes 1.50507
223
root 7.59026 17.9972 -29.2374 -178.355 -4.01879 177.202
lowerback 3.36318 -0.984326 -5.11286
upperback -0.534412 -1.49309 1.71072
thorax -2.26392 -0.669425 4.72003
lowerneck -12.9393 -3.74415 -15.562
upperneck 22.6349 -6.53701 14.7191
head 10.3035 -3.27054 7.06095
rclavicle 2.12948e-014 1.35174e-014
rhumerus -72.9956 -5.17981 -85.6756
rradius 96.2127
rwrist 8.43941
rhand -34.4731 -11.7351
rfingers 7.12502
rthumb -7.6362 -41.5773
lclavicle 2.12948e-014 1.35174e-014
lhumerus -57.4299 -27.2999 102.584
lradius 89.1339
lwrist -20.5249
lhand -35.5592 12.1088
lfingers 7.12502
lthumb -8.68441 41.9102
rfemur -33.5523 -17.1994 25.0659
rtibia 41.3379
rfoot -159.917 4.51296
rtoes -16.0091
lfemur 5.26445 -0.875737 -19.5197
ltibia 59.6214
lfoot 8.85157 3.84857
ltoes 0.954393
224
root 7.56942 17.8656 -29.6923 -179.317 -3.39354 178.165
lowerback 4.26568 -0.610947 -4.15262
upperback -0.198819 -0.991148 2.07678
thorax -2.49281 -0.435815 4.54642
lowerneck -12.7024 -3.8492 -15.4458
upperneck 22.1897 -6.57348 14.4425
head 10.0933 -3.28607 6.91128
rclavicle 2.03754e-014 -3.10104e-014
rhumerus -70.6783 -4.91641 -86.0713
rradius 96.3173
rwrist 8.8775
rhand -35.1677 -11.6745
rfingers 7.12502
rthumb -8.30658 -41.4912
lclavicle 2.03754e-014 -3.10104e-014
lhumerus -57.7342 -25.67 101.865
lradius 84.7474
lwrist -20.836
lhand -35.5741 13.2195
lfingers 7.12502
lthumb -8.69885 43.0202
rfemur -31.8291 -17.1158 25.6295
rtibia 43.0599
rfoot -161.628 6.16203
rtoes -16.8968
lfemur 3.45818 0.461025 -17.6814
ltibia 64.3013
lfoot 7.3287 2.68018
ltoes 0.12301
225
root 7.56182 17.7669 -30.1592 -180.206 -2.59677 179.605
lowerback 5.05575 -0.0997008 -2.74211
upperback 0.099637 -0.272133 2.59173
thorax -2.71005 -0.106454 4.24448
lowerneck -12.2186 -4.04895 -15.6166
upperneck 21.5539 -6.74528 14.3587
head 9.81094 -3.37581 6.86428
rclavicle -2.45996e-015 -1.66979e-014
rhumerus -68.3319 -4.58015 -86.404
rradius 96.538
rwrist 9.0986
rhand -35.4186 -12.3269
rfingers 7.12502
rthumb -8.54872 -42.1339
lclavicle -2.45996e-015 -1.66979e-014
lhumerus -57.9779 -24.269 101.295
lradius 80.0582
lwrist -21.0127
lhand -35.531 13.9582
lfingers 7.12502
lthumb -8.65723 43.7607
rfemur -30.1253 -16.6774 26.8155
rtibia 44.7074
rfoot -163.397 7.26455
rtoes -17.3484
lfemur 1.64725 1.92033 -15.1293
ltibia 68.5434
lfoot 5.97042 1.57977
ltoes 0.108358
226
root 7.57082 17.6802 -30.6112 -181.139 -2.149 181.135
lowerback 6.00105 0.281958 -1.42644
upperback 0.507463 0.267845 3.15272
thorax -2.86614 0.122587 4.04566
lowerneck -11.8396 -4.21725 -15.5313
upperneck 20.7948 -6.8561 14.175
head 9.48611 -3.41359 6.7407
rclavicle -3.50358e-015 -6.36111e-015
rhumerus -65.5652 -4.04963 -86.884
rradius 96.7334
rwrist 8.70666
rhand -36.2007 -12.7098
rfingers 7.12502
rthumb -9.30346 -42.4845
lclavicle -3.50358e-015 -6.36111e-015
lhumerus -57.7552 -22.8288 100.399
lradius 75.1911
lwrist -21.4633
lhand -34.987 14.4596
lfingers 7.12502
lthumb -8.13222 44.2831
rfemur -28.3358 -15.6167 28.101
rtibia 46.3089
rfoot -165.397 7.468
rtoes -16.5265
lfemur -0.325362 2.84275 -12.4224
ltibia 72.534
lfoot 4.71307 0.368672
ltoes -1.14371
227
root 7.58017 17.5863 -31.035 -181.959 -1.74816 182.071
lowerback 6.97663 0.641144 -0.780049
upperback 0.967359 0.74339 3.55871
thorax -2.97236 0.325017 4.06106
lowerneck -11.695 -4.40652 -15.316
upperneck 20.0742 -6.96904 13.9188
head 9.21612 -3.43857 6.57078
rclavicle 2.78299e-015 -3.18055e-015
rhumerus -62.4852 -3.23097 -87.3608
rradius 96.8724
rwrist 8.37419
rhand -36.8143 -12.707
rfingers 7.12502
rthumb -9.89547 -42.4545
lclavicle 2.78299e-015 -3.18055e-015
lhumerus -57.6036 -21.4809 99.5196
lradius 70.656
lwrist -21.6424
lhand -35.0571 14.6563
lfingers 7.12502
lthumb -8.19984 44.4772
rfemur -26.5574 -13.7985 28.6681
rtibia 47.7744
rfoot -167.413 7.64888
rtoes -14.7157
lfemur -2.58592 3.66009 -10.4588
ltibia 76.2281
lfoot 3.48634 -0.681229
ltoes -1.4965
228
root 7.56055 17.4737 -31.445 -182.418 -1.33346 182.939
lowerback 7.54657 0.914246 0.18886
upperback 1.38147 1.1298 3.81835
thorax -2.87717 0.478299 3.74325
lowerneck -11.9891 -4.55885 -15.0588
upperneck 19.8464 -7.07773 13.7283
head 9.19794 -3.4548 6.43256
rclavicle 2.98177e-016 0
rhumerus -59.0192 -1.91998 -88.0091
rradius 96.746
rwrist 8.11634
rhand -37.774 -13.3731
rfingers 7.12502
rthumb -10.8213 -43.0743
lclavicle 2.98177e-016 0
lhumerus -57.8863 -20.4766 98.8345
lradius 66.8258
lwrist -21.1303
lhand -35.2722 14.8123
lfingers 7.12502
lthumb -8.40743 44.6249
rfemur -25.1289 -12.9474 29.2092
rtibia 49.0991
rfoot -168.784 8.50107
rtoes -12.9249
lfemur -5.48126 4.47147 -8.88374
ltibia 79.8364
lfoot 2.09725 -1.49744
ltoes -2.59363
